<svg id="fi_4437066" enable-background="new 0 0 510 510" height="512" viewBox="0 0 510 510" width="512" xmlns="http://www.w3.org/2000/svg"><g><path d="m479 183h-448l-31 32v256c0 8.284 6.716 15 15 15h480c8.284 0 15-6.716 15-15v-256z" fill="#5f55af"></path><path d="m479 183h-224v303h240c8.284 0 15-6.716 15-15v-256z" fill="#453d83"></path><path d="m351 134c-8.284 0-15-6.716-15-15v-48c0-9.374-7.626-17-17-17h-128c-9.374 0-17 7.626-17 17v48c0 8.284-6.716 15-15 15s-15-6.716-15-15v-48c0-25.916 21.084-47 47-47h128c25.916 0 47 21.084 47 47v48c0 8.284-6.716 15-15 15z" fill="#5f55af"></path><path d="m319 24h-64v30h64c9.374 0 17 7.626 17 17v48c0 8.284 6.716 15 15 15s15-6.716 15-15v-48c0-25.916-21.084-47-47-47z" fill="#453d83"></path><path d="m495 104h-480c-8.284 0-15 6.716-15 15v96c0 25.916 21.084 47 47 47h416c25.916 0 47-21.084 47-47v-96c0-8.284-6.716-15-15-15z" fill="#fed843"></path><path d="m495 104h-240v158h208c25.916 0 47-21.084 47-47v-96c0-8.284-6.716-15-15-15z" fill="#ff9100"></path><path d="m303 198h-96c-8.284 0-15-6.716-15-15s6.716-15 15-15h96c8.284 0 15 6.716 15 15s-6.716 15-15 15z" fill="#ff9100"></path><path d="m303 168h-48v30h48c8.284 0 15-6.716 15-15s-6.716-15-15-15z" fill="#ff641a"></path><path d="m223 296h-57l-15 8-15-8h-57c-8.284 0-15 6.716-15 15v96c0 8.284 6.716 15 15 15h144c8.284 0 15-6.716 15-15v-96c0-8.284-6.716-15-15-15z" fill="#fed843"></path><path d="m166 296v47c0 8.284-6.716 15-15 15s-15-6.716-15-15v-47z" fill="#ff9100"></path><path d="m431 296h-57l-15 8-15-8h-57c-8.284 0-15 6.716-15 15v96c0 8.284 6.716 15 15 15h144c8.284 0 15-6.716 15-15v-96c0-8.284-6.716-15-15-15z" fill="#ff9100"></path><path d="m374 296v47c0 8.284-6.716 15-15 15s-15-6.716-15-15v-47z" fill="#ff641a"></path></g></svg>